<svg preserveAspectRatio="none" width="100%" height="100%" overflow="visible" style="display: block;" viewBox="0 0 12.7058 12" fill="none" xmlns="http://www.w3.org/2000/svg">
<path id="Vector" d="M5.76267 0.389018C5.98105 -0.129673 6.72482 -0.129672 6.9432 0.389019L8.23206 3.45043C8.32418 3.66909 8.53234 3.8185 8.77128 3.83743L12.1167 4.10239C12.6836 4.14729 12.9134 4.8461 12.4815 5.21157L9.93267 7.36856C9.75062 7.52265 9.67107 7.76441 9.72669 7.99474L10.5054 11.2199C10.6374 11.7663 10.0357 12.1983 9.55037 11.9055L6.68617 10.1771C6.48158 10.0537 6.22429 10.0537 6.01971 10.1771L3.1555 11.9055C2.67021 12.1983 2.06849 11.7663 2.20042 11.2199L2.97916 7.99474C3.03478 7.76441 2.95527 7.52265 2.77322 7.36856L0.224298 5.21157C-0.207562 4.8461 0.0222784 4.14729 0.589102 4.10239L3.9346 3.83743C4.17356 3.8185 4.38172 3.66909 4.47378 3.45043L5.76267 0.389018Z" fill="var(--fill-0, black)" fill-opacity="0.87"/>
</svg>
